<svg width="400" height="400" viewBox="0 0 400 400" fill="none" xmlns="http://www.w3.org/2000/svg">
<circle cx="200" cy="200" r="200" fill="#FFA50B"/>
<path d="M149.244 114.182V296H110.803V114.182H149.244ZM180.871 296V114.182H252.604C266.394 114.182 278.142 116.816 287.849 122.083C297.555 127.291 304.954 134.542 310.044 143.834C315.193 153.067 317.767 163.72 317.767 175.794C317.767 187.868 315.163 198.521 309.955 207.754C304.746 216.987 297.2 224.178 287.316 229.327C277.491 234.477 265.595 237.051 251.627 237.051H205.906V206.245H245.413C252.811 206.245 258.907 204.973 263.701 202.428C268.554 199.823 272.165 196.243 274.532 191.685C276.959 187.069 278.172 181.772 278.172 175.794C278.172 169.757 276.959 164.49 274.532 159.991C272.165 155.434 268.554 151.913 263.701 149.427C258.848 146.882 252.693 145.609 245.235 145.609H219.312V296H180.871Z" fill="#22272F"/>
</svg>
