<svg id="visual" viewBox="0 0 900 100" width="900" height="100" xmlns="http://www.w3.org/2000/svg" xmlns:xlink="http://www.w3.org/1999/xlink" version="1.1"><rect x="0" y="0" width="900" height="100" fill="#22272f"></rect><path d="M0 5L6.5 8.7C13 12.3 26 19.7 39 19C52 18.3 65 9.7 78 8.3C91 7 104 13 117.2 16.2C130.3 19.3 143.7 19.7 156.8 21C170 22.3 183 24.7 196 26.5C209 28.3 222 29.7 235 28.3C248 27 261 23 274 20.2C287 17.3 300 15.7 313 17C326 18.3 339 22.7 352 22.8C365 23 378 19 391 14.5C404 10 417 5 430.2 6C443.3 7 456.7 14 469.8 15C483 16 496 11 509 12C522 13 535 20 548 19C561 18 574 9 587 8.7C600 8.3 613 16.7 626 18.7C639 20.7 652 16.3 665 14.8C678 13.3 691 14.7 704 17.3C717 20 730 24 743.2 22.2C756.3 20.3 769.7 12.7 782.8 8.2C796 3.7 809 2.3 822 3.5C835 4.7 848 8.3 861 9.7C874 11 887 10 893.5 9.5L900 9L900 101L893.5 101C887 101 874 101 861 101C848 101 835 101 822 101C809 101 796 101 782.8 101C769.7 101 756.3 101 743.2 101C730 101 717 101 704 101C691 101 678 101 665 101C652 101 639 101 626 101C613 101 600 101 587 101C574 101 561 101 548 101C535 101 522 101 509 101C496 101 483 101 469.8 101C456.7 101 443.3 101 430.2 101C417 101 404 101 391 101C378 101 365 101 352 101C339 101 326 101 313 101C300 101 287 101 274 101C261 101 248 101 235 101C222 101 209 101 196 101C183 101 170 101 156.8 101C143.7 101 130.3 101 117.2 101C104 101 91 101 78 101C65 101 52 101 39 101C26 101 13 101 6.5 101L0 101Z" fill="#5400d1"></path><path d="M0 29L6.5 27.2C13 25.3 26 21.7 39 24.5C52 27.3 65 36.7 78 41.7C91 46.7 104 47.3 117.2 45.8C130.3 44.3 143.7 40.7 156.8 35.3C170 30 183 23 196 21.3C209 19.7 222 23.3 235 23.7C248 24 261 21 274 22.7C287 24.3 300 30.7 313 34.3C326 38 339 39 352 40.3C365 41.7 378 43.3 391 42.5C404 41.7 417 38.3 430.2 37C443.3 35.7 456.7 36.3 469.8 34.8C483 33.3 496 29.7 509 28.3C522 27 535 28 548 29.7C561 31.3 574 33.7 587 36.3C600 39 613 42 626 42.2C639 42.3 652 39.7 665 37.8C678 36 691 35 704 36.5C717 38 730 42 743.2 41.5C756.3 41 769.7 36 782.8 35.8C796 35.7 809 40.3 822 39C835 37.7 848 30.3 861 26.7C874 23 887 23 893.5 23L900 23L900 101L893.5 101C887 101 874 101 861 101C848 101 835 101 822 101C809 101 796 101 782.8 101C769.7 101 756.3 101 743.2 101C730 101 717 101 704 101C691 101 678 101 665 101C652 101 639 101 626 101C613 101 600 101 587 101C574 101 561 101 548 101C535 101 522 101 509 101C496 101 483 101 469.8 101C456.7 101 443.3 101 430.2 101C417 101 404 101 391 101C378 101 365 101 352 101C339 101 326 101 313 101C300 101 287 101 274 101C261 101 248 101 235 101C222 101 209 101 196 101C183 101 170 101 156.8 101C143.7 101 130.3 101 117.2 101C104 101 91 101 78 101C65 101 52 101 39 101C26 101 13 101 6.5 101L0 101Z" fill="#ca0098"></path><path d="M0 52L6.5 52C13 52 26 52 39 53.7C52 55.3 65 58.7 78 55.8C91 53 104 44 117.2 39.5C130.3 35 143.7 35 156.8 37.8C170 40.7 183 46.3 196 50.7C209 55 222 58 235 57.3C248 56.7 261 52.3 274 52.7C287 53 300 58 313 57.8C326 57.7 339 52.3 352 50.5C365 48.7 378 50.3 391 52.2C404 54 417 56 430.2 55C443.3 54 456.7 50 469.8 48.3C483 46.7 496 47.3 509 47.2C522 47 535 46 548 44.2C561 42.3 574 39.7 587 39.8C600 40 613 43 626 47.2C639 51.3 652 56.7 665 59.3C678 62 691 62 704 61.2C717 60.3 730 58.7 743.2 57.3C756.3 56 769.7 55 782.8 56.2C796 57.3 809 60.7 822 61.7C835 62.7 848 61.3 861 61.3C874 61.3 887 62.7 893.5 63.3L900 64L900 101L893.5 101C887 101 874 101 861 101C848 101 835 101 822 101C809 101 796 101 782.8 101C769.7 101 756.3 101 743.2 101C730 101 717 101 704 101C691 101 678 101 665 101C652 101 639 101 626 101C613 101 600 101 587 101C574 101 561 101 548 101C535 101 522 101 509 101C496 101 483 101 469.8 101C456.7 101 443.3 101 430.2 101C417 101 404 101 391 101C378 101 365 101 352 101C339 101 326 101 313 101C300 101 287 101 274 101C261 101 248 101 235 101C222 101 209 101 196 101C183 101 170 101 156.8 101C143.7 101 130.3 101 117.2 101C104 101 91 101 78 101C65 101 52 101 39 101C26 101 13 101 6.5 101L0 101Z" fill="#f00066"></path><path d="M0 62L6.5 64.7C13 67.3 26 72.7 39 73.2C52 73.7 65 69.3 78 66.7C91 64 104 63 117.2 61.8C130.3 60.7 143.7 59.3 156.8 60.7C170 62 183 66 196 67.5C209 69 222 68 235 66.7C248 65.3 261 63.7 274 63.7C287 63.7 300 65.3 313 66.5C326 67.7 339 68.3 352 68.5C365 68.7 378 68.3 391 67.8C404 67.3 417 66.7 430.2 66.7C443.3 66.7 456.7 67.3 469.8 67C483 66.7 496 65.3 509 63C522 60.7 535 57.3 548 56.8C561 56.3 574 58.7 587 59C600 59.3 613 57.7 626 55.7C639 53.7 652 51.3 665 51.5C678 51.7 691 54.3 704 58.5C717 62.7 730 68.3 743.2 72C756.3 75.7 769.7 77.3 782.8 74.2C796 71 809 63 822 61.5C835 60 848 65 861 67C874 69 887 68 893.5 67.5L900 67L900 101L893.5 101C887 101 874 101 861 101C848 101 835 101 822 101C809 101 796 101 782.8 101C769.7 101 756.3 101 743.2 101C730 101 717 101 704 101C691 101 678 101 665 101C652 101 639 101 626 101C613 101 600 101 587 101C574 101 561 101 548 101C535 101 522 101 509 101C496 101 483 101 469.8 101C456.7 101 443.3 101 430.2 101C417 101 404 101 391 101C378 101 365 101 352 101C339 101 326 101 313 101C300 101 287 101 274 101C261 101 248 101 235 101C222 101 209 101 196 101C183 101 170 101 156.8 101C143.7 101 130.3 101 117.2 101C104 101 91 101 78 101C65 101 52 101 39 101C26 101 13 101 6.5 101L0 101Z" fill="#f7443c"></path><path d="M0 97L6.5 96.3C13 95.7 26 94.3 39 90.2C52 86 65 79 78 76.3C91 73.7 104 75.3 117.2 76.2C130.3 77 143.7 77 156.8 75.8C170 74.7 183 72.3 196 74C209 75.7 222 81.3 235 84.8C248 88.3 261 89.7 274 87C287 84.3 300 77.7 313 74.7C326 71.7 339 72.3 352 71.5C365 70.7 378 68.3 391 69.8C404 71.3 417 76.7 430.2 77.7C443.3 78.7 456.7 75.3 469.8 75.5C483 75.7 496 79.3 509 81.7C522 84 535 85 548 84C561 83 574 80 587 79.3C600 78.7 613 80.3 626 79.7C639 79 652 76 665 73.8C678 71.7 691 70.3 704 70.2C717 70 730 71 743.2 75.3C756.3 79.7 769.7 87.3 782.8 91C796 94.7 809 94.3 822 93.8C835 93.3 848 92.7 861 88.2C874 83.7 887 75.3 893.5 71.2L900 67L900 101L893.5 101C887 101 874 101 861 101C848 101 835 101 822 101C809 101 796 101 782.8 101C769.7 101 756.3 101 743.2 101C730 101 717 101 704 101C691 101 678 101 665 101C652 101 639 101 626 101C613 101 600 101 587 101C574 101 561 101 548 101C535 101 522 101 509 101C496 101 483 101 469.8 101C456.7 101 443.3 101 430.2 101C417 101 404 101 391 101C378 101 365 101 352 101C339 101 326 101 313 101C300 101 287 101 274 101C261 101 248 101 235 101C222 101 209 101 196 101C183 101 170 101 156.8 101C143.7 101 130.3 101 117.2 101C104 101 91 101 78 101C65 101 52 101 39 101C26 101 13 101 6.5 101L0 101Z" fill="#ec7200"></path></svg>