<svg id="visual" viewBox="0 0 900 100" width="900" height="100" xmlns="http://www.w3.org/2000/svg" xmlns:xlink="http://www.w3.org/1999/xlink" version="1.1"><rect x="0" y="0" width="900" height="100" fill="#ffffff"></rect><path d="M0 24L6.5 25C13 26 26 28 39 26.8C52 25.7 65 21.3 78 19.5C91 17.7 104 18.3 117.2 17.2C130.3 16 143.7 13 156.8 14.3C170 15.7 183 21.3 196 22.7C209 24 222 21 235 19C248 17 261 16 274 16.7C287 17.3 300 19.7 313 18.3C326 17 339 12 352 9.5C365 7 378 7 391 10.2C404 13.3 417 19.7 430.2 22.3C443.3 25 456.7 24 469.8 24.3C483 24.7 496 26.3 509 22.5C522 18.7 535 9.3 548 7C561 4.7 574 9.3 587 13.5C600 17.7 613 21.3 626 20.7C639 20 652 15 665 11C678 7 691 4 704 7.3C717 10.7 730 20.3 743.2 21.3C756.3 22.3 769.7 14.7 782.8 13.5C796 12.3 809 17.7 822 21.7C835 25.7 848 28.3 861 27.2C874 26 887 21 893.5 18.5L900 16L900 101L893.5 101C887 101 874 101 861 101C848 101 835 101 822 101C809 101 796 101 782.8 101C769.7 101 756.3 101 743.2 101C730 101 717 101 704 101C691 101 678 101 665 101C652 101 639 101 626 101C613 101 600 101 587 101C574 101 561 101 548 101C535 101 522 101 509 101C496 101 483 101 469.8 101C456.7 101 443.3 101 430.2 101C417 101 404 101 391 101C378 101 365 101 352 101C339 101 326 101 313 101C300 101 287 101 274 101C261 101 248 101 235 101C222 101 209 101 196 101C183 101 170 101 156.8 101C143.7 101 130.3 101 117.2 101C104 101 91 101 78 101C65 101 52 101 39 101C26 101 13 101 6.5 101L0 101Z" fill="#8fc0de"></path><path d="M0 45L6.5 42.2C13 39.3 26 33.7 39 33.5C52 33.3 65 38.7 78 39.3C91 40 104 36 117.2 31.3C130.3 26.7 143.7 21.3 156.8 24C170 26.7 183 37.3 196 37.8C209 38.3 222 28.7 235 28C248 27.3 261 35.7 274 38.5C287 41.3 300 38.7 313 34.8C326 31 339 26 352 25.2C365 24.3 378 27.7 391 26.8C404 26 417 21 430.2 19C443.3 17 456.7 18 469.8 21.5C483 25 496 31 509 31.3C522 31.7 535 26.3 548 27C561 27.7 574 34.3 587 35.2C600 36 613 31 626 31.7C639 32.3 652 38.7 665 39.8C678 41 691 37 704 36C717 35 730 37 743.2 37.3C756.3 37.7 769.7 36.3 782.8 37.2C796 38 809 41 822 38.2C835 35.3 848 26.7 861 23.2C874 19.7 887 21.3 893.5 22.2L900 23L900 101L893.5 101C887 101 874 101 861 101C848 101 835 101 822 101C809 101 796 101 782.8 101C769.7 101 756.3 101 743.2 101C730 101 717 101 704 101C691 101 678 101 665 101C652 101 639 101 626 101C613 101 600 101 587 101C574 101 561 101 548 101C535 101 522 101 509 101C496 101 483 101 469.8 101C456.7 101 443.3 101 430.2 101C417 101 404 101 391 101C378 101 365 101 352 101C339 101 326 101 313 101C300 101 287 101 274 101C261 101 248 101 235 101C222 101 209 101 196 101C183 101 170 101 156.8 101C143.7 101 130.3 101 117.2 101C104 101 91 101 78 101C65 101 52 101 39 101C26 101 13 101 6.5 101L0 101Z" fill="#a3acf0"></path><path d="M0 35L6.5 36.7C13 38.3 26 41.7 39 43.3C52 45 65 45 78 43.5C91 42 104 39 117.2 40.7C130.3 42.3 143.7 48.7 156.8 49.2C170 49.7 183 44.3 196 43.7C209 43 222 47 235 47.7C248 48.3 261 45.7 274 44C287 42.3 300 41.7 313 40.5C326 39.3 339 37.7 352 41.7C365 45.7 378 55.3 391 60C404 64.7 417 64.3 430.2 63.2C443.3 62 456.7 60 469.8 57.3C483 54.7 496 51.3 509 52C522 52.7 535 57.3 548 54.8C561 52.3 574 42.7 587 41.7C600 40.7 613 48.3 626 52.8C639 57.3 652 58.7 665 59.2C678 59.7 691 59.3 704 59.3C717 59.3 730 59.7 743.2 60.3C756.3 61 769.7 62 782.8 59.2C796 56.3 809 49.7 822 49.8C835 50 848 57 861 59.7C874 62.3 887 60.7 893.5 59.8L900 59L900 101L893.5 101C887 101 874 101 861 101C848 101 835 101 822 101C809 101 796 101 782.8 101C769.7 101 756.3 101 743.2 101C730 101 717 101 704 101C691 101 678 101 665 101C652 101 639 101 626 101C613 101 600 101 587 101C574 101 561 101 548 101C535 101 522 101 509 101C496 101 483 101 469.8 101C456.7 101 443.3 101 430.2 101C417 101 404 101 391 101C378 101 365 101 352 101C339 101 326 101 313 101C300 101 287 101 274 101C261 101 248 101 235 101C222 101 209 101 196 101C183 101 170 101 156.8 101C143.7 101 130.3 101 117.2 101C104 101 91 101 78 101C65 101 52 101 39 101C26 101 13 101 6.5 101L0 101Z" fill="#e487d3"></path><path d="M0 74L6.5 73.7C13 73.3 26 72.7 39 71.3C52 70 65 68 78 67.8C91 67.7 104 69.3 117.2 71.5C130.3 73.7 143.7 76.3 156.8 73.2C170 70 183 61 196 60C209 59 222 66 235 67.2C248 68.3 261 63.7 274 63.5C287 63.3 300 67.7 313 69C326 70.3 339 68.7 352 64.8C365 61 378 55 391 52.2C404 49.3 417 49.7 430.2 50.5C443.3 51.3 456.7 52.7 469.8 55.2C483 57.7 496 61.3 509 65.7C522 70 535 75 548 73C561 71 574 62 587 60.2C600 58.3 613 63.7 626 66.2C639 68.7 652 68.3 665 67.7C678 67 691 66 704 65.5C717 65 730 65 743.2 67.8C756.3 70.7 769.7 76.3 782.8 78.7C796 81 809 80 822 79.8C835 79.7 848 80.3 861 76C874 71.7 887 62.3 893.5 57.7L900 53L900 101L893.5 101C887 101 874 101 861 101C848 101 835 101 822 101C809 101 796 101 782.8 101C769.7 101 756.3 101 743.2 101C730 101 717 101 704 101C691 101 678 101 665 101C652 101 639 101 626 101C613 101 600 101 587 101C574 101 561 101 548 101C535 101 522 101 509 101C496 101 483 101 469.8 101C456.7 101 443.3 101 430.2 101C417 101 404 101 391 101C378 101 365 101 352 101C339 101 326 101 313 101C300 101 287 101 274 101C261 101 248 101 235 101C222 101 209 101 196 101C183 101 170 101 156.8 101C143.7 101 130.3 101 117.2 101C104 101 91 101 78 101C65 101 52 101 39 101C26 101 13 101 6.5 101L0 101Z" fill="#ff6481"></path><path d="M0 97L6.5 95.3C13 93.7 26 90.3 39 90C52 89.7 65 92.3 78 90.2C91 88 104 81 117.2 78.2C130.3 75.3 143.7 76.7 156.8 75.7C170 74.7 183 71.3 196 74.5C209 77.7 222 87.3 235 88.3C248 89.3 261 81.7 274 76.7C287 71.7 300 69.3 313 69.5C326 69.7 339 72.3 352 73.8C365 75.3 378 75.7 391 74.2C404 72.7 417 69.3 430.2 68.7C443.3 68 456.7 70 469.8 73.5C483 77 496 82 509 81.2C522 80.3 535 73.7 548 74.3C561 75 574 83 587 88.2C600 93.3 613 95.7 626 92.5C639 89.3 652 80.7 665 75.5C678 70.3 691 68.7 704 70.7C717 72.7 730 78.3 743.2 79.8C756.3 81.3 769.7 78.7 782.8 78C796 77.3 809 78.7 822 81.2C835 83.7 848 87.3 861 89C874 90.7 887 90.3 893.5 90.2L900 90L900 101L893.5 101C887 101 874 101 861 101C848 101 835 101 822 101C809 101 796 101 782.8 101C769.7 101 756.3 101 743.2 101C730 101 717 101 704 101C691 101 678 101 665 101C652 101 639 101 626 101C613 101 600 101 587 101C574 101 561 101 548 101C535 101 522 101 509 101C496 101 483 101 469.8 101C456.7 101 443.3 101 430.2 101C417 101 404 101 391 101C378 101 365 101 352 101C339 101 326 101 313 101C300 101 287 101 274 101C261 101 248 101 235 101C222 101 209 101 196 101C183 101 170 101 156.8 101C143.7 101 130.3 101 117.2 101C104 101 91 101 78 101C65 101 52 101 39 101C26 101 13 101 6.5 101L0 101Z" fill="#ec7200"></path></svg>