<svg id="visual" viewBox="0 0 1800 225" width="1800" height="225" xmlns="http://www.w3.org/2000/svg" xmlns:xlink="http://www.w3.org/1999/xlink" version="1.1"><rect x="0" y="0" width="1800" height="225" fill="#f0f8ff"></rect><path d="M0 90L33.3 81.7C66.7 73.3 133.3 56.7 200 51.8C266.7 47 333.3 54 400 55.5C466.7 57 533.3 53 600 51.7C666.7 50.3 733.3 51.7 800 57.5C866.7 63.3 933.3 73.7 1000 79.3C1066.7 85 1133.3 86 1200 80C1266.7 74 1333.3 61 1400 60.7C1466.7 60.3 1533.3 72.7 1600 75.3C1666.7 78 1733.3 71 1766.7 67.5L1800 64L1800 226L1766.7 226C1733.3 226 1666.7 226 1600 226C1533.3 226 1466.7 226 1400 226C1333.3 226 1266.7 226 1200 226C1133.3 226 1066.7 226 1000 226C933.3 226 866.7 226 800 226C733.3 226 666.7 226 600 226C533.3 226 466.7 226 400 226C333.3 226 266.7 226 200 226C133.3 226 66.7 226 33.3 226L0 226Z" fill="#ffa50b"></path><path d="M0 70L33.3 74C66.7 78 133.3 86 200 92.3C266.7 98.7 333.3 103.3 400 107.7C466.7 112 533.3 116 600 118.2C666.7 120.3 733.3 120.7 800 117.5C866.7 114.3 933.3 107.7 1000 101.7C1066.7 95.7 1133.3 90.3 1200 89.3C1266.7 88.3 1333.3 91.7 1400 92.2C1466.7 92.7 1533.3 90.3 1600 89.3C1666.7 88.3 1733.3 88.7 1766.7 88.8L1800 89L1800 226L1766.7 226C1733.3 226 1666.7 226 1600 226C1533.3 226 1466.7 226 1400 226C1333.3 226 1266.7 226 1200 226C1133.3 226 1066.7 226 1000 226C933.3 226 866.7 226 800 226C733.3 226 666.7 226 600 226C533.3 226 466.7 226 400 226C333.3 226 266.7 226 200 226C133.3 226 66.7 226 33.3 226L0 226Z" fill="#fb9904"></path><path d="M0 137L33.3 138.3C66.7 139.7 133.3 142.3 200 144.3C266.7 146.3 333.3 147.7 400 145.2C466.7 142.7 533.3 136.3 600 132C666.7 127.7 733.3 125.3 800 127.2C866.7 129 933.3 135 1000 136.2C1066.7 137.3 1133.3 133.7 1200 135.2C1266.7 136.7 1333.3 143.3 1400 141C1466.7 138.7 1533.3 127.3 1600 127.2C1666.7 127 1733.3 138 1766.7 143.5L1800 149L1800 226L1766.7 226C1733.3 226 1666.7 226 1600 226C1533.3 226 1466.7 226 1400 226C1333.3 226 1266.7 226 1200 226C1133.3 226 1066.7 226 1000 226C933.3 226 866.7 226 800 226C733.3 226 666.7 226 600 226C533.3 226 466.7 226 400 226C333.3 226 266.7 226 200 226C133.3 226 66.7 226 33.3 226L0 226Z" fill="#f68c00"></path><path d="M0 174L33.3 167.7C66.7 161.3 133.3 148.7 200 147.8C266.7 147 333.3 158 400 163.7C466.7 169.3 533.3 169.7 600 168.5C666.7 167.3 733.3 164.7 800 165.7C866.7 166.7 933.3 171.3 1000 167.5C1066.7 163.7 1133.3 151.3 1200 146.3C1266.7 141.3 1333.3 143.7 1400 146.3C1466.7 149 1533.3 152 1600 152.2C1666.7 152.3 1733.3 149.7 1766.7 148.3L1800 147L1800 226L1766.7 226C1733.3 226 1666.7 226 1600 226C1533.3 226 1466.7 226 1400 226C1333.3 226 1266.7 226 1200 226C1133.3 226 1066.7 226 1000 226C933.3 226 866.7 226 800 226C733.3 226 666.7 226 600 226C533.3 226 466.7 226 400 226C333.3 226 266.7 226 200 226C133.3 226 66.7 226 33.3 226L0 226Z" fill="#f17f00"></path><path d="M0 190L33.3 191.2C66.7 192.3 133.3 194.7 200 191.8C266.7 189 333.3 181 400 177.5C466.7 174 533.3 175 600 177C666.7 179 733.3 182 800 186.3C866.7 190.7 933.3 196.3 1000 196.2C1066.7 196 1133.3 190 1200 186.3C1266.7 182.7 1333.3 181.3 1400 179.8C1466.7 178.3 1533.3 176.7 1600 178.5C1666.7 180.3 1733.3 185.7 1766.7 188.3L1800 191L1800 226L1766.7 226C1733.3 226 1666.7 226 1600 226C1533.3 226 1466.7 226 1400 226C1333.3 226 1266.7 226 1200 226C1133.3 226 1066.7 226 1000 226C933.3 226 866.7 226 800 226C733.3 226 666.7 226 600 226C533.3 226 466.7 226 400 226C333.3 226 266.7 226 200 226C133.3 226 66.7 226 33.3 226L0 226Z" fill="#ec7200"></path></svg>