<svg id="visual" viewBox="0 0 1800 225" width="1800" height="225" xmlns="http://www.w3.org/2000/svg" xmlns:xlink="http://www.w3.org/1999/xlink" version="1.1"><rect x="0" y="0" width="1800" height="225" fill="#22272f"></rect><path d="M0 35L33.3 35C66.7 35 133.3 35 200 37.8C266.7 40.7 333.3 46.3 400 49.8C466.7 53.3 533.3 54.7 600 59C666.7 63.3 733.3 70.7 800 73.5C866.7 76.3 933.3 74.7 1000 71.3C1066.7 68 1133.3 63 1200 62.8C1266.7 62.7 1333.3 67.3 1400 68.3C1466.7 69.3 1533.3 66.7 1600 64.3C1666.7 62 1733.3 60 1766.7 59L1800 58L1800 226L1766.7 226C1733.3 226 1666.7 226 1600 226C1533.3 226 1466.7 226 1400 226C1333.3 226 1266.7 226 1200 226C1133.3 226 1066.7 226 1000 226C933.3 226 866.7 226 800 226C733.3 226 666.7 226 600 226C533.3 226 466.7 226 400 226C333.3 226 266.7 226 200 226C133.3 226 66.7 226 33.3 226L0 226Z" fill="#ffa50b"></path><path d="M0 70L33.3 75.7C66.7 81.3 133.3 92.7 200 98.3C266.7 104 333.3 104 400 97.8C466.7 91.7 533.3 79.3 600 73.3C666.7 67.3 733.3 67.7 800 73.2C866.7 78.7 933.3 89.3 1000 92.2C1066.7 95 1133.3 90 1200 85.8C1266.7 81.7 1333.3 78.3 1400 83.3C1466.7 88.3 1533.3 101.7 1600 103.3C1666.7 105 1733.3 95 1766.7 90L1800 85L1800 226L1766.7 226C1733.3 226 1666.7 226 1600 226C1533.3 226 1466.7 226 1400 226C1333.3 226 1266.7 226 1200 226C1133.3 226 1066.7 226 1000 226C933.3 226 866.7 226 800 226C733.3 226 666.7 226 600 226C533.3 226 466.7 226 400 226C333.3 226 266.7 226 200 226C133.3 226 66.7 226 33.3 226L0 226Z" fill="#fb9904"></path><path d="M0 101L33.3 108.3C66.7 115.7 133.3 130.3 200 133.7C266.7 137 333.3 129 400 124.5C466.7 120 533.3 119 600 117.5C666.7 116 733.3 114 800 111.3C866.7 108.7 933.3 105.3 1000 109.2C1066.7 113 1133.3 124 1200 126.8C1266.7 129.7 1333.3 124.3 1400 125.7C1466.7 127 1533.3 135 1600 134.2C1666.7 133.3 1733.3 123.7 1766.7 118.8L1800 114L1800 226L1766.7 226C1733.3 226 1666.7 226 1600 226C1533.3 226 1466.7 226 1400 226C1333.3 226 1266.7 226 1200 226C1133.3 226 1066.7 226 1000 226C933.3 226 866.7 226 800 226C733.3 226 666.7 226 600 226C533.3 226 466.7 226 400 226C333.3 226 266.7 226 200 226C133.3 226 66.7 226 33.3 226L0 226Z" fill="#f68c00"></path><path d="M0 178L33.3 174.2C66.7 170.3 133.3 162.7 200 160.2C266.7 157.7 333.3 160.3 400 163.3C466.7 166.3 533.3 169.7 600 170.5C666.7 171.3 733.3 169.7 800 170.5C866.7 171.3 933.3 174.7 1000 172.5C1066.7 170.3 1133.3 162.7 1200 160.8C1266.7 159 1333.3 163 1400 160.2C1466.7 157.3 1533.3 147.7 1600 144C1666.7 140.3 1733.3 142.7 1766.7 143.8L1800 145L1800 226L1766.7 226C1733.3 226 1666.7 226 1600 226C1533.3 226 1466.7 226 1400 226C1333.3 226 1266.7 226 1200 226C1133.3 226 1066.7 226 1000 226C933.3 226 866.7 226 800 226C733.3 226 666.7 226 600 226C533.3 226 466.7 226 400 226C333.3 226 266.7 226 200 226C133.3 226 66.7 226 33.3 226L0 226Z" fill="#f17f00"></path><path d="M0 177L33.3 176.7C66.7 176.3 133.3 175.7 200 180.2C266.7 184.7 333.3 194.3 400 196.8C466.7 199.3 533.3 194.7 600 192C666.7 189.3 733.3 188.7 800 188.2C866.7 187.7 933.3 187.3 1000 186.3C1066.7 185.3 1133.3 183.7 1200 185.7C1266.7 187.7 1333.3 193.3 1400 197C1466.7 200.7 1533.3 202.3 1600 200.8C1666.7 199.3 1733.3 194.7 1766.7 192.3L1800 190L1800 226L1766.7 226C1733.3 226 1666.7 226 1600 226C1533.3 226 1466.7 226 1400 226C1333.3 226 1266.7 226 1200 226C1133.3 226 1066.7 226 1000 226C933.3 226 866.7 226 800 226C733.3 226 666.7 226 600 226C533.3 226 466.7 226 400 226C333.3 226 266.7 226 200 226C133.3 226 66.7 226 33.3 226L0 226Z" fill="#ec7200"></path></svg>