<svg id="visual" viewBox="0 0 900 100" width="900" height="100" xmlns="http://www.w3.org/2000/svg" xmlns:xlink="http://www.w3.org/1999/xlink" version="1.1"><rect x="0" y="0" width="900" height="100" fill="#22272f"></rect><path d="M0 7L6.5 9.5C13 12 26 17 39 16.5C52 16 65 10 78 7C91 4 104 4 117.2 5.5C130.3 7 143.7 10 156.8 14.3C170 18.7 183 24.3 196 26.7C209 29 222 28 235 24.8C248 21.7 261 16.3 274 17.2C287 18 300 25 313 23.3C326 21.7 339 11.3 352 7C365 2.7 378 4.3 391 7.3C404 10.3 417 14.7 430.2 14.5C443.3 14.3 456.7 9.7 469.8 8.2C483 6.7 496 8.3 509 9.5C522 10.7 535 11.3 548 14.7C561 18 574 24 587 22.3C600 20.7 613 11.3 626 6.7C639 2 652 2 665 1.8C678 1.7 691 1.3 704 1.2C717 1 730 1 743.2 5.3C756.3 9.7 769.7 18.3 782.8 22C796 25.7 809 24.3 822 20.2C835 16 848 9 861 6.8C874 4.7 887 7.3 893.5 8.7L900 10L900 101L893.5 101C887 101 874 101 861 101C848 101 835 101 822 101C809 101 796 101 782.8 101C769.7 101 756.3 101 743.2 101C730 101 717 101 704 101C691 101 678 101 665 101C652 101 639 101 626 101C613 101 600 101 587 101C574 101 561 101 548 101C535 101 522 101 509 101C496 101 483 101 469.8 101C456.7 101 443.3 101 430.2 101C417 101 404 101 391 101C378 101 365 101 352 101C339 101 326 101 313 101C300 101 287 101 274 101C261 101 248 101 235 101C222 101 209 101 196 101C183 101 170 101 156.8 101C143.7 101 130.3 101 117.2 101C104 101 91 101 78 101C65 101 52 101 39 101C26 101 13 101 6.5 101L0 101Z" fill="#5400d1"></path><path d="M0 20L6.5 20.5C13 21 26 22 39 21.5C52 21 65 19 78 18.7C91 18.3 104 19.7 117.2 20.7C130.3 21.7 143.7 22.3 156.8 25C170 27.7 183 32.3 196 35.3C209 38.3 222 39.7 235 36.5C248 33.3 261 25.7 274 26.8C287 28 300 38 313 39.3C326 40.7 339 33.3 352 29.2C365 25 378 24 391 25.2C404 26.3 417 29.7 430.2 34C443.3 38.3 456.7 43.7 469.8 43.7C483 43.7 496 38.3 509 33.8C522 29.3 535 25.7 548 26.3C561 27 574 32 587 33.8C600 35.7 613 34.3 626 32C639 29.7 652 26.3 665 25.3C678 24.3 691 25.7 704 25.3C717 25 730 23 743.2 25.7C756.3 28.3 769.7 35.7 782.8 35.5C796 35.3 809 27.7 822 28.3C835 29 848 38 861 37.8C874 37.7 887 28.3 893.5 23.7L900 19L900 101L893.5 101C887 101 874 101 861 101C848 101 835 101 822 101C809 101 796 101 782.8 101C769.7 101 756.3 101 743.2 101C730 101 717 101 704 101C691 101 678 101 665 101C652 101 639 101 626 101C613 101 600 101 587 101C574 101 561 101 548 101C535 101 522 101 509 101C496 101 483 101 469.8 101C456.7 101 443.3 101 430.2 101C417 101 404 101 391 101C378 101 365 101 352 101C339 101 326 101 313 101C300 101 287 101 274 101C261 101 248 101 235 101C222 101 209 101 196 101C183 101 170 101 156.8 101C143.7 101 130.3 101 117.2 101C104 101 91 101 78 101C65 101 52 101 39 101C26 101 13 101 6.5 101L0 101Z" fill="#ca0098"></path><path d="M0 41L6.5 43.5C13 46 26 51 39 50.5C52 50 65 44 78 44C91 44 104 50 117.2 51.5C130.3 53 143.7 50 156.8 50.2C170 50.3 183 53.7 196 53C209 52.3 222 47.7 235 44.5C248 41.3 261 39.7 274 42.8C287 46 300 54 313 57.7C326 61.3 339 60.7 352 60C365 59.3 378 58.7 391 57.2C404 55.7 417 53.3 430.2 50.2C443.3 47 456.7 43 469.8 42.2C483 41.3 496 43.7 509 46.8C522 50 535 54 548 52.8C561 51.7 574 45.3 587 42.2C600 39 613 39 626 42C639 45 652 51 665 54.3C678 57.7 691 58.3 704 58.5C717 58.7 730 58.3 743.2 58.3C756.3 58.3 769.7 58.7 782.8 59.8C796 61 809 63 822 63C835 63 848 61 861 56.5C874 52 887 45 893.5 41.5L900 38L900 101L893.5 101C887 101 874 101 861 101C848 101 835 101 822 101C809 101 796 101 782.8 101C769.7 101 756.3 101 743.2 101C730 101 717 101 704 101C691 101 678 101 665 101C652 101 639 101 626 101C613 101 600 101 587 101C574 101 561 101 548 101C535 101 522 101 509 101C496 101 483 101 469.8 101C456.7 101 443.3 101 430.2 101C417 101 404 101 391 101C378 101 365 101 352 101C339 101 326 101 313 101C300 101 287 101 274 101C261 101 248 101 235 101C222 101 209 101 196 101C183 101 170 101 156.8 101C143.7 101 130.3 101 117.2 101C104 101 91 101 78 101C65 101 52 101 39 101C26 101 13 101 6.5 101L0 101Z" fill="#f00066"></path><path d="M0 53L6.5 57.2C13 61.3 26 69.7 39 72.5C52 75.3 65 72.7 78 71.7C91 70.7 104 71.3 117.2 69C130.3 66.7 143.7 61.3 156.8 60.5C170 59.7 183 63.3 196 64.3C209 65.3 222 63.7 235 61C248 58.3 261 54.7 274 56.8C287 59 300 67 313 69C326 71 339 67 352 66C365 65 378 67 391 68.7C404 70.3 417 71.7 430.2 69.2C443.3 66.7 456.7 60.3 469.8 61.3C483 62.3 496 70.7 509 71.2C522 71.7 535 64.3 548 59.7C561 55 574 53 587 55.2C600 57.3 613 63.7 626 67.2C639 70.7 652 71.3 665 68.2C678 65 691 58 704 55C717 52 730 53 743.2 55.5C756.3 58 769.7 62 782.8 64C796 66 809 66 822 68.3C835 70.7 848 75.3 861 78C874 80.7 887 81.3 893.5 81.7L900 82L900 101L893.5 101C887 101 874 101 861 101C848 101 835 101 822 101C809 101 796 101 782.8 101C769.7 101 756.3 101 743.2 101C730 101 717 101 704 101C691 101 678 101 665 101C652 101 639 101 626 101C613 101 600 101 587 101C574 101 561 101 548 101C535 101 522 101 509 101C496 101 483 101 469.8 101C456.7 101 443.3 101 430.2 101C417 101 404 101 391 101C378 101 365 101 352 101C339 101 326 101 313 101C300 101 287 101 274 101C261 101 248 101 235 101C222 101 209 101 196 101C183 101 170 101 156.8 101C143.7 101 130.3 101 117.2 101C104 101 91 101 78 101C65 101 52 101 39 101C26 101 13 101 6.5 101L0 101Z" fill="#f7443c"></path><path d="M0 68L6.5 72.8C13 77.7 26 87.3 39 87.5C52 87.7 65 78.3 78 77C91 75.7 104 82.3 117.2 82.2C130.3 82 143.7 75 156.8 76.3C170 77.7 183 87.3 196 88.2C209 89 222 81 235 80C248 79 261 85 274 86.8C287 88.7 300 86.3 313 87.5C326 88.7 339 93.3 352 92.2C365 91 378 84 391 82.7C404 81.3 417 85.7 430.2 87C443.3 88.3 456.7 86.7 469.8 82.7C483 78.7 496 72.3 509 74.2C522 76 535 86 548 86.8C561 87.7 574 79.3 587 78.7C600 78 613 85 626 87.3C639 89.7 652 87.3 665 84C678 80.7 691 76.3 704 75.3C717 74.3 730 76.7 743.2 79.5C756.3 82.3 769.7 85.7 782.8 88.5C796 91.3 809 93.7 822 93.8C835 94 848 92 861 91.3C874 90.7 887 91.3 893.5 91.7L900 92L900 101L893.5 101C887 101 874 101 861 101C848 101 835 101 822 101C809 101 796 101 782.8 101C769.7 101 756.3 101 743.2 101C730 101 717 101 704 101C691 101 678 101 665 101C652 101 639 101 626 101C613 101 600 101 587 101C574 101 561 101 548 101C535 101 522 101 509 101C496 101 483 101 469.8 101C456.7 101 443.3 101 430.2 101C417 101 404 101 391 101C378 101 365 101 352 101C339 101 326 101 313 101C300 101 287 101 274 101C261 101 248 101 235 101C222 101 209 101 196 101C183 101 170 101 156.8 101C143.7 101 130.3 101 117.2 101C104 101 91 101 78 101C65 101 52 101 39 101C26 101 13 101 6.5 101L0 101Z" fill="#ec7200"></path></svg>