<svg id="visual" viewBox="0 0 900 100" width="900" height="100" xmlns="http://www.w3.org/2000/svg" xmlns:xlink="http://www.w3.org/1999/xlink" version="1.1"><rect x="0" y="0" width="900" height="100" fill="#ffffff"></rect><path d="M0 15L6.5 16.3C13 17.7 26 20.3 39 20.5C52 20.7 65 18.3 78 18.8C91 19.3 104 22.7 117.2 21.8C130.3 21 143.7 16 156.8 12.7C170 9.3 183 7.7 196 8.8C209 10 222 14 235 15C248 16 261 14 274 15.8C287 17.7 300 23.3 313 22.5C326 21.7 339 14.3 352 11C365 7.7 378 8.3 391 10.2C404 12 417 15 430.2 17C443.3 19 456.7 20 469.8 22.3C483 24.7 496 28.3 509 27.5C522 26.7 535 21.3 548 18C561 14.7 574 13.3 587 12.5C600 11.7 613 11.3 626 12.7C639 14 652 17 665 18.5C678 20 691 20 704 17C717 14 730 8 743.2 10C756.3 12 769.7 22 782.8 22.7C796 23.3 809 14.7 822 9.8C835 5 848 4 861 4.8C874 5.7 887 8.3 893.5 9.7L900 11L900 101L893.5 101C887 101 874 101 861 101C848 101 835 101 822 101C809 101 796 101 782.8 101C769.7 101 756.3 101 743.2 101C730 101 717 101 704 101C691 101 678 101 665 101C652 101 639 101 626 101C613 101 600 101 587 101C574 101 561 101 548 101C535 101 522 101 509 101C496 101 483 101 469.8 101C456.7 101 443.3 101 430.2 101C417 101 404 101 391 101C378 101 365 101 352 101C339 101 326 101 313 101C300 101 287 101 274 101C261 101 248 101 235 101C222 101 209 101 196 101C183 101 170 101 156.8 101C143.7 101 130.3 101 117.2 101C104 101 91 101 78 101C65 101 52 101 39 101C26 101 13 101 6.5 101L0 101Z" fill="#8fc0de"></path><path d="M0 38L6.5 39.8C13 41.7 26 45.3 39 46.3C52 47.3 65 45.7 78 43.8C91 42 104 40 117.2 40.2C130.3 40.3 143.7 42.7 156.8 44.3C170 46 183 47 196 46.8C209 46.7 222 45.3 235 43.2C248 41 261 38 274 34.3C287 30.7 300 26.3 313 25C326 23.7 339 25.3 352 26.3C365 27.3 378 27.7 391 30.7C404 33.7 417 39.3 430.2 39.5C443.3 39.7 456.7 34.3 469.8 33.7C483 33 496 37 509 38.8C522 40.7 535 40.3 548 41.3C561 42.3 574 44.7 587 41.5C600 38.3 613 29.7 626 25.7C639 21.7 652 22.3 665 25.8C678 29.3 691 35.7 704 39.8C717 44 730 46 743.2 46C756.3 46 769.7 44 782.8 44C796 44 809 46 822 42C835 38 848 28 861 25.7C874 23.3 887 28.7 893.5 31.3L900 34L900 101L893.5 101C887 101 874 101 861 101C848 101 835 101 822 101C809 101 796 101 782.8 101C769.7 101 756.3 101 743.2 101C730 101 717 101 704 101C691 101 678 101 665 101C652 101 639 101 626 101C613 101 600 101 587 101C574 101 561 101 548 101C535 101 522 101 509 101C496 101 483 101 469.8 101C456.7 101 443.3 101 430.2 101C417 101 404 101 391 101C378 101 365 101 352 101C339 101 326 101 313 101C300 101 287 101 274 101C261 101 248 101 235 101C222 101 209 101 196 101C183 101 170 101 156.8 101C143.7 101 130.3 101 117.2 101C104 101 91 101 78 101C65 101 52 101 39 101C26 101 13 101 6.5 101L0 101Z" fill="#a3acf0"></path><path d="M0 37L6.5 41C13 45 26 53 39 56C52 59 65 57 78 53.2C91 49.3 104 43.7 117.2 42.2C130.3 40.7 143.7 43.3 156.8 47C170 50.7 183 55.3 196 57.8C209 60.3 222 60.7 235 56.8C248 53 261 45 274 43.2C287 41.3 300 45.7 313 49.7C326 53.7 339 57.3 352 56.2C365 55 378 49 391 49C404 49 417 55 430.2 58.2C443.3 61.3 456.7 61.7 469.8 61.7C483 61.7 496 61.3 509 61.8C522 62.3 535 63.7 548 64C561 64.3 574 63.7 587 61.3C600 59 613 55 626 53.8C639 52.7 652 54.3 665 52C678 49.7 691 43.3 704 39.7C717 36 730 35 743.2 35.2C756.3 35.3 769.7 36.7 782.8 36.5C796 36.3 809 34.7 822 37.2C835 39.7 848 46.3 861 49.5C874 52.7 887 52.3 893.5 52.2L900 52L900 101L893.5 101C887 101 874 101 861 101C848 101 835 101 822 101C809 101 796 101 782.8 101C769.7 101 756.3 101 743.2 101C730 101 717 101 704 101C691 101 678 101 665 101C652 101 639 101 626 101C613 101 600 101 587 101C574 101 561 101 548 101C535 101 522 101 509 101C496 101 483 101 469.8 101C456.7 101 443.3 101 430.2 101C417 101 404 101 391 101C378 101 365 101 352 101C339 101 326 101 313 101C300 101 287 101 274 101C261 101 248 101 235 101C222 101 209 101 196 101C183 101 170 101 156.8 101C143.7 101 130.3 101 117.2 101C104 101 91 101 78 101C65 101 52 101 39 101C26 101 13 101 6.5 101L0 101Z" fill="#e487d3"></path><path d="M0 72L6.5 73.2C13 74.3 26 76.7 39 75.3C52 74 65 69 78 67.8C91 66.7 104 69.3 117.2 69.8C130.3 70.3 143.7 68.7 156.8 67.8C170 67 183 67 196 67.3C209 67.7 222 68.3 235 68.2C248 68 261 67 274 64.2C287 61.3 300 56.7 313 54.2C326 51.7 339 51.3 352 51.5C365 51.7 378 52.3 391 56.8C404 61.3 417 69.7 430.2 70.8C443.3 72 456.7 66 469.8 64.7C483 63.3 496 66.7 509 64.8C522 63 535 56 548 54.3C561 52.7 574 56.3 587 61.2C600 66 613 72 626 74.7C639 77.3 652 76.7 665 74.7C678 72.7 691 69.3 704 65.8C717 62.3 730 58.7 743.2 56.3C756.3 54 769.7 53 782.8 54.7C796 56.3 809 60.7 822 65.2C835 69.7 848 74.3 861 73.7C874 73 887 67 893.5 64L900 61L900 101L893.5 101C887 101 874 101 861 101C848 101 835 101 822 101C809 101 796 101 782.8 101C769.7 101 756.3 101 743.2 101C730 101 717 101 704 101C691 101 678 101 665 101C652 101 639 101 626 101C613 101 600 101 587 101C574 101 561 101 548 101C535 101 522 101 509 101C496 101 483 101 469.8 101C456.7 101 443.3 101 430.2 101C417 101 404 101 391 101C378 101 365 101 352 101C339 101 326 101 313 101C300 101 287 101 274 101C261 101 248 101 235 101C222 101 209 101 196 101C183 101 170 101 156.8 101C143.7 101 130.3 101 117.2 101C104 101 91 101 78 101C65 101 52 101 39 101C26 101 13 101 6.5 101L0 101Z" fill="#ff6481"></path><path d="M0 74L6.5 77.5C13 81 26 88 39 87C52 86 65 77 78 73.2C91 69.3 104 70.7 117.2 71.2C130.3 71.7 143.7 71.3 156.8 71C170 70.7 183 70.3 196 69.8C209 69.3 222 68.7 235 73.3C248 78 261 88 274 91.2C287 94.3 300 90.7 313 86.5C326 82.3 339 77.7 352 78.3C365 79 378 85 391 87.7C404 90.3 417 89.7 430.2 88.7C443.3 87.7 456.7 86.3 469.8 86.2C483 86 496 87 509 87.7C522 88.3 535 88.7 548 85.2C561 81.7 574 74.3 587 73.8C600 73.3 613 79.7 626 81.2C639 82.7 652 79.3 665 76.3C678 73.3 691 70.7 704 71.2C717 71.7 730 75.3 743.2 80.2C756.3 85 769.7 91 782.8 90.5C796 90 809 83 822 78.5C835 74 848 72 861 70.3C874 68.7 887 67.3 893.5 66.7L900 66L900 101L893.5 101C887 101 874 101 861 101C848 101 835 101 822 101C809 101 796 101 782.8 101C769.7 101 756.3 101 743.2 101C730 101 717 101 704 101C691 101 678 101 665 101C652 101 639 101 626 101C613 101 600 101 587 101C574 101 561 101 548 101C535 101 522 101 509 101C496 101 483 101 469.8 101C456.7 101 443.3 101 430.2 101C417 101 404 101 391 101C378 101 365 101 352 101C339 101 326 101 313 101C300 101 287 101 274 101C261 101 248 101 235 101C222 101 209 101 196 101C183 101 170 101 156.8 101C143.7 101 130.3 101 117.2 101C104 101 91 101 78 101C65 101 52 101 39 101C26 101 13 101 6.5 101L0 101Z" fill="#ec7200"></path></svg>